<svg width="36" height="37" viewBox="0 0 36 37" fill="none" xmlns="http://www.w3.org/2000/svg">
<g opacity="0.4" filter="url(#filter0_d_614_17)">
<path d="M5.45542 7.66197C5.45542 6.94084 5.93617 6.46009 6.6573 6.46009H7.85917C8.5803 6.46009 9.06105 6.94084 9.06105 7.66197C9.06105 8.3831 8.5803 8.86385 7.85917 8.86385H6.6573C5.93617 8.86385 5.45542 8.3831 5.45542 7.66197ZM6.6573 17.277C6.6573 16.5559 7.13805 16.0751 7.85917 16.0751H9.06105C9.78218 16.0751 10.2629 16.5559 10.2629 17.277C10.2629 17.9981 9.78218 18.4789 9.06105 18.4789H7.85917C7.13805 18.4789 6.6573 17.9981 6.6573 17.277ZM6.6573 20.8826C5.93617 20.8826 5.45542 21.3634 5.45542 22.0845C5.45542 22.8056 5.93617 23.2864 6.6573 23.2864H16.2723C16.9934 23.2864 17.4742 22.8056 17.4742 22.0845C17.4742 21.3634 16.9934 20.8826 16.2723 20.8826H6.6573ZM27.0892 7.66197C27.0892 6.94084 27.57 6.46009 28.2911 6.46009H30.6949C31.416 6.46009 31.8967 6.94084 31.8967 7.66197C31.8967 8.3831 31.416 8.86385 30.6949 8.86385H28.2911C27.57 8.86385 27.0892 8.3831 27.0892 7.66197ZM10.2629 25.6901C9.5418 25.6901 9.06105 26.1709 9.06105 26.892C9.06105 27.6131 9.5418 28.0939 10.2629 28.0939H18.6761C19.3972 28.0939 19.878 27.6131 19.878 26.892C19.878 26.1709 19.3972 25.6901 18.6761 25.6901H10.2629ZM5.45542 13.6714C4.73429 13.6714 4.25354 13.1906 4.25354 12.4695C4.25354 11.7484 4.73429 11.2676 5.45542 11.2676H19.878C21.2 11.2676 22.2817 10.1859 22.2817 8.86385C22.2817 7.54178 21.2 6.46009 19.878 6.46009C19.1568 6.46009 18.5559 6.70047 18.1953 7.18122C17.7146 7.66197 16.9934 7.66197 16.5127 7.18122C16.0319 6.70047 16.0319 5.97934 16.5127 5.49859C17.354 4.65727 18.5559 4.05634 19.878 4.05634C22.5221 4.05634 24.6855 6.21972 24.6855 8.86385C24.6855 11.508 22.5221 13.6714 19.878 13.6714H5.45542ZM28.2911 16.0751C29.0122 16.0751 29.493 15.5944 29.493 14.8732C29.493 14.1521 29.0122 13.6714 28.2911 13.6714C27.9305 13.6714 27.6902 13.7915 27.4498 14.0319C26.969 14.5127 26.2479 14.5127 25.7672 14.0319C25.2864 13.5512 25.2864 12.83 25.7672 12.3493C26.3681 11.6282 27.3296 11.2676 28.2911 11.2676C30.3343 11.2676 31.8967 12.83 31.8967 14.8732C31.8967 16.9164 30.3343 18.4789 28.2911 18.4789H17.4742C16.7531 18.4789 16.2723 17.9981 16.2723 17.277C16.2723 16.5559 16.7531 16.0751 17.4742 16.0751H28.2911ZM27.0892 23.2864H21.0798C20.3587 23.2864 19.878 22.8056 19.878 22.0845C19.878 21.3634 20.3587 20.8826 21.0798 20.8826H27.0892C29.1324 20.8826 30.6949 22.4451 30.6949 24.4883C30.6949 26.5315 29.1324 28.0939 27.0892 28.0939C26.1277 28.0939 25.1662 27.7333 24.5653 27.0122C24.0845 26.5315 24.0845 25.8103 24.5653 25.3296C25.046 24.8488 25.7672 24.8488 26.2479 25.3296C26.4883 25.57 26.7287 25.6901 27.0892 25.6901C27.8103 25.6901 28.2911 25.2094 28.2911 24.4883C28.2911 23.7671 27.8103 23.2864 27.0892 23.2864Z" fill="white"/>
</g>
<defs>
<filter id="filter0_d_614_17" x="-2" y="0" width="40" height="40" filterUnits="userSpaceOnUse" color-interpolation-filters="sRGB">
<feFlood flood-opacity="0" result="BackgroundImageFix"/>
<feColorMatrix in="SourceAlpha" type="matrix" values="0 0 0 0 0 0 0 0 0 0 0 0 0 0 0 0 0 0 127 0" result="hardAlpha"/>
<feOffset dy="4"/>
<feGaussianBlur stdDeviation="2"/>
<feComposite in2="hardAlpha" operator="out"/>
<feColorMatrix type="matrix" values="0 0 0 0 0 0 0 0 0 0 0 0 0 0 0 0 0 0 0.25 0"/>
<feBlend mode="normal" in2="BackgroundImageFix" result="effect1_dropShadow_614_17"/>
<feBlend mode="normal" in="SourceGraphic" in2="effect1_dropShadow_614_17" result="shape"/>
</filter>
</defs>
</svg>
